<?xml version="1.0" encoding="utf-8"?>
<!-- Generator: Adobe Illustrator 18.1.1, SVG Export Plug-In . SVG Version: 6.00 Build 0)  -->
<!DOCTYPE svg PUBLIC "-//W3C//DTD SVG 1.1//EN" "http://www.w3.org/Graphics/SVG/1.1/DTD/svg11.dtd">
<svg version="1.1" id="Layer_1" xmlns="http://www.w3.org/2000/svg" xmlns:xlink="http://www.w3.org/1999/xlink" x="0px" y="0px"
	 viewBox="0 0 778.5 1136" style="enable-background:new 0 0 778.5 1136;" xml:space="preserve">
<g>
	<path d="M500.1,224.7c-6,0.4-7.7,8.3-7.6,14.3c0,5.5,0,11,0,16.5c0,3.5,0,7.1-1.9,10.1c-1.9,2.9-6.3,4.4-8.9,2.1
		c-2.9-2.6-1.4-7.2-0.3-10.9c1.1-3.7,0.6-9.2-3.2-9.6c2,13.2-11.2,26.4-24.4,24.4c-4.6-0.7-8.9-2.9-12.6-5.8
		c-10.2-8-15.7-21.5-14-34.3c1.7-12.8,10.6-24.4,22.5-29.4c3.7-1.5,7.7-2.5,11.7-1.9c11.3,1.6,17.4,16.2,12.9,26.8
		s-16.2,16.5-27.6,17.3c-2.2,4.4,2.6,9.7,7.5,9.9s9.3-2.8,13.3-5.7c3.2-2.3,6.4-4.6,9.6-6.9c1.5-1.1,3.2-2.5,3.1-4.4
		c-0.3-8.3-0.7-16.6-1-24.9c-0.1-3.3,0.3-7.4,3.4-8.4c3.3-1.1,6.1,2.4,8.6,4.8c6.7,6.4,18.7,5.8,24.8-1.1c3-3.4,9.2-0.9,11,3.3
		c1.7,4.2,0.5,9-0.5,13.5c-1,4.5-1.7,9.5,0.9,13.3c4.5,6.7,15.2,4.4,21.3-0.7c4.6-3.9,8.2-9,10.3-14.6c1.5-3.9,2.3-8.2,4.8-11.4
		s7.7-5.1,10.9-2.4c-1.9,16.2-2.8,35.3,9.4,46.1c2.6,2.3,5.6,4,7.9,6.6c2.3,2.6,3.6,6.4,2.1,9.5c-1.6,3.1-6.9,3.7-8.3,0.5
		c0.5,7.2,1,14.6-0.9,21.6c-2,7-6.9,13.5-13.9,15.4c-8.4,2.2-16.9-2.8-23.2-8.7c-5.7-5.4-10.6-12.1-11.9-19.8s1.7-16.5,8.5-20.3
		c5.2-2.9,11.6-2.6,16.7-5.6c5.1-3,6.8-12.3,1.1-13.8c-8.7,7.7-18.6,15.9-30.2,15.4c-14.4-0.7-25.2-17.9-19.6-31.1
		C510.7,228.3,504.5,224.4,500.1,224.7 M554,275c-2.5,8.5,2.7,18.5,11.1,21.4c2.3,0.8,4.8-1,5.7-3.3s0.6-4.8,0.3-7.2
		c-0.6-4.7-1.2-9.4-1.8-14.2c-0.5-3.6-4.9-5.7-8.4-4.7C557.4,268.2,555,271.5,554,275 M446.6,229.9c0.5,0.4,1.2,0.5,1.8,0.6
		c4.6,0.7,9.6-1.1,12.6-4.8s3.9-8.9,2.3-13.3c-3.6-1.2-7.7,0.2-10.5,2.7c-2.9,2.5-4.7,5.9-6.3,9.4
		C445.7,226.3,445,228.7,446.6,229.9z"/>
	<path d="M350,243.2c7.4,8.6,16.8,15.4,27.3,19.7c-1.9,4.7-7.4,7.1-12.4,6.6c-5-0.6-9.4-3.6-13-7.1c-1.9-2-3.7-4.1-6.2-5.4
		c-2.5-1.2-5.8-1.2-7.6,0.9c-8.9,10.8-25.9,12.8-38.3,6.2c-12.3-6.6-19.9-20.4-21-34.3s3.5-27.9,10.8-39.9
		c4.9-8.1,11.4-15.7,20.1-19.3c16.7-6.9,37.1,4,44.6,20.4C361.9,207.5,358.5,227.2,350,243.2 M345.2,227c1.7-6.7,2.6-13.7,2.5-20.7
		c-0.1-5.9-1.1-12.3-5-16.7c-3.8-4.2-9.7-6-15.4-6c-12.6,0.1-24.4,8.4-29.8,19.8c-5.4,11.3-4.7,25.1,0.7,36.5
		c2.7,5.7,6.7,11,12.3,13.9c5.6,2.8,13,2.7,17.7-1.6c2.6-2.4,4-7,1.3-9.4c-6.6-5.8-12.4-12.7-17-20.2c9.1-2,19.2,2,24.4,9.7
		c1.2,1.7,4,1.6,5.6,0.2C344,231.1,344.7,229,345.2,227z"/>
	<path d="M261.9,202.6c-0.5,0.6-1.4,0.9-2.2,1.2c-6.3,1.8-13.3,1.1-19.1-2c-2.6-1.4-5.2-3.5-5.9-6.4c-0.9-3.7,1.6-7.6,5-9.4
		c3.4-1.7,7.5-1.7,11.2-1.1c2.7,0.4,5.4,1.1,7.5,2.9c3.3,2.8,4.1,7.6,4.1,11.9C262.6,200.8,262.6,201.9,261.9,202.6z"/>
	<path d="M368.8,209.4c0.8-1.5,1.7-3.1,3.3-3.8c2.9-1.2,6.1,1.5,6.9,4.6c0.7,3-0.3,6.2-0.8,9.3c-1.5,7.9-0.5,16.3,2.8,23.7
		c2.9,6.4,9.2,12.6,16,10.9c4.9-1.2,8.1-6.1,9.2-11c3-12.6-3.8-26.4,1-38.4c0.5-1.3,1.4-2.7,2.8-2.9c0.8-0.1,1.5,0.3,2.2,0.7
		c4.6,2.8,6.9,8.3,7.7,13.6s0.2,10.7,0.5,16.1c0.2,4.6,1,9.2,2.3,13.6c0.9,2.9,2,5.8,1.7,8.8c-0.2,3-2.3,6.2-5.3,6.4
		c-1.4,0.1-2.7-0.4-4-0.6c-7.3-1.3-13.8,4.9-21.1,5.6c-6,0.5-11.8-2.8-16.2-7C364.6,246.6,360.9,225.5,368.8,209.4z"/>
	<path d="M256.3,245.1c-4.9-11.1-13.7-20.8-15-32.9c2.8-3.2,8.1-1.3,11.5,1.3c10.3,7.9,16.7,20,19.5,32.7
		c2.8,12.7,2.2,25.8,0.6,38.7c-0.6,4.5-1.3,9-3.1,13.1c-4.1,9.1-13,14.8-21.9,19.3c-3.2,1.6-6.7,3.1-10.2,2.7
		c-3.1-0.4-5.7-2.2-8.2-4c-4.3-3-8.6-6.2-11.3-10.7s-3.7-10.4-0.8-14.8c1.8-2.8,7.2-3.8,7.8-0.5c1.4,8.2,12.2,12.2,19.8,8.9
		c7.7-3.3,12.2-11.4,14.3-19.5C262.1,268,261,255.8,256.3,245.1 M235.1,305.7c1.9,2.7,6.6,2.5,8.3-0.3c-2.6-0.7-5.4-0.7-7.9,0
		L235.1,305.7z"/>
</g>
<g>
	<path d="M122.6,135.1c-13.2,4.7-26.3,9.4-39.5,14.1c-2.7,1-5.5,1.9-8.3,1.6c-7.9-0.9-11.2-10.5-12.7-18.4
		C55.7,98,55.2,99,52.4,63.3c-0.6-8.2-1.3-16.4-1.9-24.6c-1.4-18.3-1.4-22.2-1.4-22.2c0-0.6,0.3-1.2,0.8-1.5
		c20.5-13,36.5-15.7,60.9-14.8c15,0.6,32.6,6.4,36.5,20.9c3.2,11.9-4.5,23.8-11.7,33.8c-3.9,5.4-7.8,10.8-11.8,16.2
		c7.4,4.3,14.8,8.6,22.3,12.8c11.8,6.8,15.1,22.6,6.7,33.4C145.6,126.7,133.7,131.1,122.6,135.1 M77.8,71.3c0.2,1.4,0.5,3,1.7,3.8
		c1.5,1,3.5,0.2,5.1-0.7c13.5-7.5,25.3-17.7,37-27.8c4.4-3.8,9.1-8.1,10-13.9c0.9-5.8-2.5-11.6-7.3-14.9s-10.7-4.5-16.6-4.9
		c-10.6-0.7-21.2,1-31.4,3.9c-1.2,0.3-2.5,0.8-3.3,1.7c-0.9,1.2-0.8,2.9-0.7,4.4C73.8,39,75.7,55.2,77.8,71.3 M111.3,85.4
		c-8.6-0.1-16.5,4.3-23.9,8.5c-1.8,1-3.8,2.2-4.6,4.1c-0.6,1.5-0.4,3.1-0.3,4.7c0.9,8.1,1.8,16.3,2.7,24.4c0.1,1.1,0.3,2.2,1,3
		c1.2,1.2,3.2,0.8,4.9,0.3c11.1-3.3,22.2-6.6,33.3-9.9c6.5-1.9,14.1-5.1,15.3-11.7c1-5.3-2.8-10.3-6.8-13.9
		C126.9,89.5,119.4,85.4,111.3,85.4z"/>
	<path d="M680.8,68.7c-4-2.2-3.6-8.9-7.5-11.2c-4-2.3-8.8,1.7-11.4,5.5c-9.3,13.5-14.2,30-13.7,46.4c0.1,3.5,0.6,7.3,3.1,9.7
		c2.3,2.2,5.9,2.5,9,2.3c12.7-1,24.3-10.8,27.4-23.2c0.3-1.2,0.5-2.6-0.2-3.6c-0.5-0.7-1.4-1.1-2.2-1.4c-5.7-1.9-12.1-0.6-18-1.9
		c-5.9-1.4-11.6-7.9-8.4-13c2.3-3.6,7.3-4,11.5-3.9c7.1,0.1,14.2,0.1,21.2,0.2c5.8,0,12.3,0.3,16.6,4.2c4.3,3.9,3.9,12.8-1.8,14.1
		c-4.8,1.1-5.8,7.5-5.6,12.4c0.2,9,0.4,18.1,0.7,27.1c0.1,4,0.1,8.2-1.9,11.7s-7.1,5.3-10.2,2.8c-1.8-1.4-2.4-3.8-2.7-6.1
		c-0.8-5.8-0.2-11.7,1.7-17.2c-5-0.5-8.5,4.3-12.3,7.5c-6.9,6-17.5,7.2-25.6,3c-6.9-3.5-11.6-10.4-13.8-17.8
		c-2.2-7.4-2.2-15.3-1.3-23c2.2-19.7,10.8-40.3,28.4-49.3c8.1-4.1,19-4.9,25.4,1.5c5.4,5.4,5.5,15.3,0.1,20.8
		C687.2,68.7,683.6,70.2,680.8,68.7z"/>
	<path d="M270.7,57.5c-1-3.2,1.1-7.7-1.9-9.2C257.3,53,249,64.2,246.2,76.3c-2.8,12.2-0.7,25.1,4.3,36.6c0.5,1.2,1.1,2.4,2.2,3.1
		c1.3,0.9,3,0.8,4.6,0.6c4.1-0.4,8.1-0.8,12.2-1.1c2.5-0.2,5.4-0.6,6.8-2.7c1-1.4,1.1-3.3,1.2-5.1c0.1-4.6,0.3-9.3,0.4-13.9
		c0.1-3.9-4.5-6.4-8.5-6.2s-7.7,1.9-11.6,1.9c-3.9,0-8.4-2.8-7.9-6.7c0.4-2.8,3.2-4.6,5.8-5.7c13.7-6.1,29.3-5.8,44.3-5.4
		c1.5,0,3,0.1,4.3,1c2.4,1.7,2,5.7,0,7.9c-2,2.2-4.9,3.3-7.5,4.8c-2.6,1.5-5.1,3.9-5.1,6.9c0,9.2,0,18.4-0.1,27.6
		c0,3.3,0,6.7-1.5,9.7c-1.4,3-4.6,5.4-7.9,4.7c-2-0.4-3.6-1.8-5.6-2.2c-3.4-0.8-6.7,1.4-10.1,2.2c-5.3,1.2-10.7-1.2-15.6-3.6
		c-5.5-2.7-11.2-5.7-14.9-10.7c-5.1-6.8-5.4-16-4.7-24.4c1.4-17.2,6.2-34.4,16.3-48.3c5.7-7.8,15.2-15,24.4-11.8
		c5.3,1.8,9.1,6.9,10.4,12.4c0.9,3.8,0.7,8.4-2.2,11.1S271.8,61.3,270.7,57.5z"/>
	<path d="M179.5,82.4c10.2,0.1,20.4,0.3,30.6,0.4c3.6,0,7.6,0.3,10.1,2.9s1.2,8.3-2.4,8c-11.2-0.8-22.5,0.1-33.5,2.6
		c-1.1,0.3-2.3,0.6-3,1.5c-0.5,0.7-0.7,1.7-0.7,2.6c-0.4,3.9-0.7,7.9,0.8,11.5c1.5,3.6,5.5,6.5,9.2,5.3c6.3-1.9,12.7-3.9,19.3-3.7
		c6.6,0.2,13.5,2.9,17,8.5c1.8,2.9-2.4,5.7-5.7,6.5c-15.4,3.7-31,6.5-46.7,8.2c-2,0.2-4.3,0.3-5.8-1c-1.3-1.2-1.5-3.2-1.7-5
		c-1.2-17.1-2.3-34.2-3.5-51.3c-0.6-8.6-1.2-17.2-1.8-25.8c-0.3-3.7-0.5-7.6,0.8-11.1s4.5-6.6,8.3-6.5c9.7,0.2,19.5,0.5,29.2,0.7
		c4,0.1,8.6,0.4,11.2,3.5c3.2,3.8,1.5,10.1-2.5,13s-9.4,3.2-14.3,2.4c-4.9-0.7-9.7-2.3-14.7-2.6c-1-0.1-2-0.1-2.9,0.4
		c-2.5,1.2-2.5,4.6-2.1,7.3c0.9,6.2,1.7,12.4,2.6,18.6C177.4,80.5,178,82.3,179.5,82.4z"/>
	<path d="M343.6,39.6c3-0.6,5.4,3.1,4.7,6.1c-0.7,3-3.3,5-6,6.6c-2.6,1.5-5.5,2.7-7.6,5c-3.1,3.6-3.3,8.8-3.3,13.6
		c0,11.4,0,22.9,0,34.3c0,2.1,0.2,4.6,2.1,5.5c1,0.5,2.2,0.4,3.3,0.2c2.6-0.4,5.2-0.8,7.7-0.4c2.5,0.4,5.1,2,5.8,4.5
		c1.5,4.7-3.8,8.6-8.4,10.2c-6.2,2.2-12.9,3.3-19.5,3.4c-4.5,0.1-9.5-0.6-12.5-4.1c-2.9-3.4-1.6-10.2,2.9-10.6
		c3.1-0.3,4.1-4.3,4.3-7.4c1.1-15.5,2.1-31.1,3.2-46.6c0.2-3.6-0.2-8.3-3.6-9.4c-4.4-1.4-8.3-4.6-10.4-8.8c3.7-5.4,11.5-6,17.9-4.7
		C330.7,38.3,337.2,40.8,343.6,39.6z"/>
	<path d="M419.8,48.9c4.7,0.4,8.2,4.9,9.2,9.5c0.9,4.6-0.1,9.4-1.2,14c-3.2,13.9-6.5,27.9-9.7,41.8c-0.7,3.1-1.6,6.5-4.1,8.5
		c-3.3,2.7-8.5,1.7-11.8-0.9c-3.3-2.7-5.3-6.6-7.2-10.5c-5.2-10.8-10.5-21.6-15.7-32.3c-4.7,14-8.1,28.4-10.2,43
		c-0.5,3.8-1.7,8.5-5.5,9.4c-3.1,0.7-6.3-2-7.1-5.1c-0.9-3.1-0.1-6.4,0.8-9.5c5.6-21.4,12.4-42.6,14.5-64.6c0.3-3.3,5.3-4.3,8-2.3
		s3.6,5.6,4.5,8.8c4.3,15,11.8,29.1,22,40.9c3.4-15.9,6.7-31.9,10.1-47.8c0.2-0.9,0.4-1.8,1-2.4C417.9,48.9,418.9,48.8,419.8,48.9z"
		/>
	<path d="M483.5,119.9c-0.5,1.6-1.1,3.2-2.3,4.4c-2.6,2.7-7.4,2.2-10.4-0.1c-3-2.3-4.7-5.9-6.3-9.4c-3.6-7.9-7.3-15.7-10.9-23.6
		c-3.2,10-6.4,20-9.5,30c-1.3,4-4.3,8.9-8.2,7.6c-3.8-1.3-3.5-6.6-2.5-10.5c5.8-22.1,11.6-44.2,17.4-66.3c0.3-1.1,1.8-1,2.9-0.6
		c5.7,2.3,10,7.8,10.7,13.9c1.5,12.7,4.5,25.2,9,37.1c0.3,0.9,0.8,1.9,1.6,2.4c0.8,0.5,2.2,0.2,2.4-0.8c2.6-16.6,5.3-33.3,7.9-49.9
		c0.8-4.8,3.2-11,8-10.4c4.8,0.6,5.7,7.2,5.1,12C495.7,77.7,490.7,99.2,483.5,119.9z"/>
	<path d="M514.6,78.1c0.3-2.3,0.5-4.8-0.3-7c-0.8-2.2-3.1-4.1-5.4-3.7c-2.3,0.4-4.7-1.1-5.7-3.3c-0.9-2.2-0.5-4.8,0.7-6.8
		c2-3.4,5.8-5.4,9.7-6c3.9-0.6,7.8-0.1,11.7,0.5c3.5,0.5,6.5-2.4,10-3.1c4.1-0.9,8.7,1.7,10,5.7c1.3,4-0.8,8.8-4.7,10.5
		c-2.6,1.2-5.6,1-8.3,1.6c-2.8,0.6-5.7,2.7-5.5,5.5c0.4,9.8-0.2,19.7-1.8,29.5c-0.6,3.5,3.3,6.4,6.8,6.6c3.6,0.2,7-1.2,10.6-1.6
		s7.8,0.6,9.1,4c1.2,3-0.8,6.6-3.5,8.3s-6.2,2-9.4,2.2c-14,1-28,2.1-42,3.1c-3.7,0.3-6.7-3.8-6.2-7.5c0.5-3.7,3.6-6.6,7.1-7.8
		c3.5-1.2,7.3-1.1,11-0.8c2,0.2,2.9-2.4,3.1-4.4C512.7,95.1,513.6,86.6,514.6,78.1z"/>
	<path d="M607.6,101.1c0.6-0.2,0.7-0.2,1.3-0.3c2.6-14.7,5.9-29.3,9.8-43.7c0.5-1.8,1-3.7,3.6-4.2c1.2-0.2,2.5,0,3.6,0.6
		c2.6,1.6,3.6,4.6,4,7.4c1.2,8.1-1.2,16.3-3.6,24.1c-3.3,11-6.7,21.9-10,32.9c-1.3,4.3-6.1,6.6-10.1,4.7c-4-1.9-6.2-5.9-8.1-9.8
		c-3.8-7.5-7.7-14.9-11.5-22.4c-0.6-1.2-2.4-1-2.7,0.3c-2.3,8.5-4.6,17-6.9,25.6c-0.5,1.7-1.3,3.3-2.5,4.6
		c-5.4,5.7-11.8,0.1-12.3-5.6c-0.4-4.4,1.6-8.6,3.4-12.6c6.7-14.9,11.2-30.7,13.3-46.9c0.6-4.6,1.2-9.7,4.2-13.2
		c0.3-0.4,1-0.3,1.2,0.1c1.8,3.5,3.6,7,5.5,10.4c1.5,2.8,3,7.6,3.3,10.7C594.4,77.4,599.5,90.4,607.6,101.1z"/>
</g>
<g>
	<path d="M186.9,738.7c-1,0.9-2.3,1.8-3.7,1.6c-1.2-0.2-2-1.3-2.8-2.2c-2.8-3.7-5.6-7.4-8.4-11.1c-0.9-1.2-1.9-2.6-1.7-4.1
		c0.3-2.7,4.2-3.6,6.5-2.2s3.3,4.3,4.1,6.9c-0.2-18.7-0.5-37.4-0.7-56.2c-0.1-4.4-1.5-10.3-5.9-10.3c-33.6,0-67.2-1.2-100.7-3.6
		c-5.9-0.4-13.6-2.7-13.6-8.6c0.7-72.3,1.2-144.5,1.7-216.8c0-3.8,0-14.9,0.2-18.7c0.5-12.9,13.4-13.2,22.1-13
		c88.8,1.7,177.5,1.3,266.3-0.9c8.2-0.2,17.9,0.3,22.5,7.1c2.3,3.5,2.8,7.8,3.1,12c5.7,75.3-2.8,151.4,6.3,226.4
		c0.6,5.3-6.4,7.5-11.7,7.8c-59,3.2-118,6.3-176.9,9.5c-2.5,0.1-5.5,0.5-6.8,2.7c-0.7,1.2-0.7,2.7-0.7,4.1c0.3,18.4,0.7,36.9,1,55.3
		c3.1-3.9,6.1-7.9,9.2-11.8C197.8,722.1,194.1,732.3,186.9,738.7 M79,645.1c44.8,1.1,89.6-0.8,134.3-2.8
		c49.6-2.2,99.2-4.3,148.8-6.5c0.3-73.3,0.7-146.5,1-219.8c0-4.8-1.8-11.5-6.6-10.9c-92.9,11.6-187.1,0.3-280.7,2.5
		c-2,0-4.3,0.2-5.5,1.8c-0.9,1.1-0.9,2.7-0.9,4.1c-0.7,74.2-0.6,148.4,0.3,222.6c0,2.3,0.1,4.8,1.6,6.6
		C73.2,644.8,76.3,645,79,645.1z"/>
	<path d="M408,884.2c-3.1,2.6-7.4-1.3-9.6-4.7c-3.3-5.2-6.6-10.5-9.9-15.7c3,33.6,6.1,67.1,9.1,100.7c0.3,2.9,0.3,6.5-2.1,8.2
		c-1.4,1-3.2,1.1-5,1.1c-28.2,0.8-56.4,1.4-84.6,1.9c-65.7,1.2-131.5,1.7-197.2,2.2c-12.1,0.1-24.3,0.2-36.4,0.3
		c-2.4,0-5.1,0-6.9-1.7c-2.1-1.9-2.3-5.1-2.2-7.9c0.5-70.7,0.9-141.4,1.4-212.1c0-3.3,4.5-4.4,7.8-4.5c97.7-1.2,195.3-2.4,293-3.6
		c3.7,0,7.4-0.1,10.9,1.2c12,4.4,13.6,20.5,13.2,33.3c-0.8,22.7-1.6,45.3-2.5,68c3.7,1.8,7.8-1.5,9.9-5c2.2-3.5,4-7.7,7.8-9
		c3.8-1.3,8.7,4,5.5,6.5c-4.9,3.8-8.6,9.2-10.4,15.1c21-1.2,42-2.3,63-3.5c0.7,4.7-5.6,6.9-10.3,7.3c-16.7,1.4-33.3,2.7-50,4.1
		C400.8,872.9,413.2,879.9,408,884.2 M80.5,759.3c-1.9,0-4,0.1-5.5,1.2c-2.4,1.7-2.6,5.1-2.6,8.1c-0.4,63.6-0.7,127.2-1.1,190.9
		c0,3.2,0.3,7.1,3.1,8.7c1.6,0.9,3.6,0.8,5.5,0.7c98.6-7.9,197.5-11.6,296.4-11.2c2.9,0,3.8-3.9,3.7-6.8
		c-1.9-65.1-3.8-130.1-5.7-195.2C276.3,756.6,178.4,757.9,80.5,759.3z"/>
	<path d="M722.2,964.4c-0.1,3-6.2,6.9-9.2,6.6c-79.8-8.1-155.2-7.6-235.3-4.3c-2.7,0.1-5.9,0-7.4-2.3c-0.8-1.3-0.9-2.9-0.9-4.4
		c-0.5-67.5-1-135.1-1.5-202.6c0-2,0-4.1,1.1-5.8c1.7-2.5,5.1-3,8.1-3.2c66.4-5.2,133.1-2.8,199.6-0.3c12.4,0.5,24.8,0.9,37.3,1.4
		c4.2,0.2,8.9,0.6,11.6,3.7c2.3,2.8,2.4,6.8,2.3,10.4C725.9,831.6,724,896.5,722.2,964.4 M706.8,956.3c1.5-66.3,4.7-132.5,9.7-198.6
		c-76.6-5.9-153.6-6.8-230.4-2.6c-4.6,0.2-10.6,1.9-10.5,6.5c0.8,65.4,1.7,130.7,2.5,196.1C554.3,956.2,630.6,955.8,706.8,956.3z"/>
	<path d="M161,855.2c-4.4,0.1-8.7,0.2-13.1,0.3c-2.9,0.1-6.7,1-6.6,3.9c0.1,4.9-0.9,9.9-2.8,14.5c-0.9,2-2.5,4.2-4.6,3.9
		c-2.5-0.4-3.1-3.7-3.1-6.2c0.1-13.8,0.3-27.6,0.4-41.4c0-0.7,0-1.4,0.3-2c1-2.5,5-2.1,6.5,0.1c1.5,2.2,1.3,5.1,1.1,7.7
		s-0.4,5.5,1.2,7.7c2,2.7,6,3,9.4,2.9c3.2,0,6.5,0,9.5-1.1c3-1.1,5.8-3.3,6.5-6.4c0.6-2.5-0.2-5.2-0.2-7.8s1.1-5.7,3.7-6.2
		c2-0.4,4.1,1.1,4.9,3c0.9,1.9,0.9,4,0.8,6.1c-0.1,6-0.1,12-0.2,18c-0.1,5.8-0.1,11.7-0.9,17.5c-0.4,2.8-5.1,2.6-6.6,0.2
		c-1.5-2.4-1.1-5.5-1.3-8.4C165.5,858.5,163.8,855.2,161,855.2z"/>
	<path d="M246.8,737.4c-2.6-17.1-3.2-34.6-1.9-51.9c-2.5,1.4-4.8,3-7.1,4.8c-1.9,0.3-3.5-1.8-3.5-3.7c0-1.9,1.1-3.7,2.1-5.3
		c3.1-4.7,6.1-9.5,9.2-14.2c0.6-0.9,1.3-1.9,2.3-2.3c1.7-0.6,3.4,0.6,4.8,1.8c4.5,4.1,8.4,8.8,11.6,13.9c0.6,1,1.2,2.1,1.1,3.3
		c-0.3,2.4-3.8,3.2-5.8,1.9c-2-1.4-2.9-3.9-3.6-6.2c-1,0.2-1.9,0.4-2.9,0.5c0.1,17.4,0.2,34.8,0.3,52.2c0,2.1-0.1,4.5-1.5,6.1
		C250.5,739.8,247.2,739.5,246.8,737.4z"/>
	<path d="M536.3,854c0.3,3.9,1.1,7.9,3.4,11.1s6.5,5.2,10.2,4c2.2-0.7,4-2.4,6-3.7c2-1.2,4.7-1.9,6.6-0.5
		c-1.7,7.9-10.1,13.7-18.1,12.6c-8.5-1.2-14.8-9-16.9-17.2c-2.1-8.3-0.8-17,0.7-25.4c0.7-3.9,1.4-7.9,3.7-11.1
		c2.8-3.9,7.8-6.1,12.6-5.9s9.5,2.7,12.6,6.4c2,2.4,3.6,5.4,3.3,8.5c-0.3,3.1-2.7,6.1-5.9,6.2c-4.8-1.6-3.9-10.3-8.7-11.6
		c-3.8-1.1-6.7,3.4-7.7,7.1C536.5,840.9,535.8,847.5,536.3,854z"/>
	<path d="M248.1,841.9c-1.6-1.7-3.8,1.2-5.1,3.1c-2.5,3.7-8.3,4.6-11.9,1.9c-1.5-1.2-3.9,0-4.7,1.7c-0.8,1.7-0.6,3.7-0.3,5.6
		c0.8,6,0.6,13.1-4.3,16.5c-3.2-3.1-3.5-8.1-3.5-12.5c-0.1-8.2-0.2-16.3-0.2-24.5c0-3.9,1.3-9.2,5.2-8.9c6,0.5,3.5,13,9.4,14
		c2.1,0.4,4-1.1,5.5-2.5c3.1-3,5.6-6.5,7.6-10.3c0.8-1.7,1.6-3.4,2.9-4.7s3.6-1.8,5.1-0.7c0.6,15.4,2.4,30.7,5.4,45.8
		c0.4,2.3-3,3.6-4.9,2.3c-1.9-1.3-2.5-3.8-2.9-6.1C250.1,855.7,249,848.8,248.1,841.9z"/>
	<path d="M630.6,862.2c-1.7-4.2-7.5-4.4-11.7-6.2c-7.8-3.2-11-12.8-10.4-21.2c0.3-4.1,1.4-8.4,4.2-11.4c3.8-4.1,10.5-5,15.3-2.2
		s7.1,9.3,5.2,14.5c-0.7,2-3.8,1.5-5.1-0.1c-1.3-1.7-1.5-3.9-2.6-5.7s-4-2.8-5.2-1.1c-3.1,3.5-4.2,8.8-2.6,13.2
		c1.6,4.4,5.6,7.9,10.3,8.7c5.4,0.9,10.2,5.3,11.5,10.7c1.4,5.4-0.7,11.4-5.1,14.8c-4.6,3.6-11,4.1-16.7,3c-2.3-0.4-4.8-1.3-5.9-3.3
		c-1.1-2,0.4-5.3,2.7-4.9c3.7,0.7,7.6,1.3,11.1,0C629.2,869.7,632,865.7,630.6,862.2z"/>
	<path d="M272,871.4c-1.1-0.8-1.5-2.4-1.8-3.8c-2.8-14.9-3.9-30.1-3.1-45.2c2.1,0,4.3,0,6.4-0.1c1.3,11,2.6,21.9,3.8,32.9
		c0.2,1.8,0.4,3.6,1.4,5.1c2.1,3.1,6.5,3.3,10.3,3.2c2.9-0.1,5.8-0.2,8.7-0.3c2.7-0.1,6.7,1.5,5.6,4c-8.9,3.5-18.5,5.1-28.1,4.9
		C274.1,872.2,272.9,872.1,272,871.4L272,871.4z"/>
	<path d="M124.8,538.1c3.4-7.4,4.1-16.1,1.9-24c-0.3-1.1-0.7-2.2-1.4-3c-1.6-1.9-4.5-2.1-6.9-1.7c-2.5,0.4-5,1.1-7.4,0.5
		c-2.4-0.6-4.6-3.2-3.5-5.5c0.8-1.8,3-2.3,4.9-2.6c10-1.6,20.2-2,30.3-1.1c1.7,1.1,1.2,3.9-0.4,5.2c-1.5,1.3-3.6,1.7-5.4,2.6
		c-1.8,0.9-3.4,2.9-2.8,4.8c2.3,6.9,2.7,14.4,1,21.5c-1.2,5.3-4.1,10.8-9.3,12.6c-6.1,2.2-12.7-1.7-17.4-6.3
		c-1.3-1.2-2.6-2.8-2.2-4.5c0.5-2.4,3.9-3,6.1-2c2.2,1.1,3.8,3.1,6,4.4S123.8,540.4,124.8,538.1z"/>
	<path d="M579.1,866.3c3.7,1.4,7.8,1.6,11.6,0.4c3.9-1.2,3.1-7.5-0.3-9.9c-3.3-2.4-7.8-2.6-11.4-4.5c-5.1-2.6-8.3-8.4-8.2-14.1
		s3.3-11.2,7.9-14.6c3.8-2.7,8.7-4.1,13.2-2.8c4.5,1.3,8.1,5.7,7.7,10.3c-0.1,1.3-0.6,2.7-1.6,3.4s-2.8,0.5-3.3-0.7
		c-1.6-3.8-6.4-5.9-10.3-4.4c-3.9,1.5-6.1,6.3-4.7,10.2c2.9,8.1,15.5,7,21,13.6c3.9,4.7,2.7,12.4-1.8,16.6
		c-4.4,4.2-11.1,5.4-17.2,4.4c-2.3-0.4-4.8-1.3-5.9-3.4C574.9,868.7,576.9,865.5,579.1,866.3z"/>
	<path d="M194.3,863.3c-0.5-9.3-0.9-18.5-1.4-27.8c-3.4,0.5-7.2,0.9-10.2-0.8s-4.1-6.8-1.2-8.6c1-0.7,2.3-0.8,3.6-0.8
		c8.9-0.6,17.9-0.6,26.9-0.2c1.8,2.8-1.5,6.2-4.6,7.6c-3.1,1.4-6.9,3.3-6.6,6.7c0.9,9.1,1.4,18.2,1.7,27.3c0,1.3,0,2.8-0.8,3.8
		c-1.4,1.7-4.5,1.1-5.8-0.7C194.6,867.9,194.4,865.5,194.3,863.3z"/>
	<path d="M164.1,508.4c-2.3-0.9-4.4,1.5-5.6,3.7c-0.9,1.7-1.9,3.4-1.8,5.3c0.1,3.3,3,5.8,6,7.2c3,1.4,6.3,2.3,8.7,4.7
		c4.5,4.5,3.1,12.9-2.1,16.6s-12.7,2.8-17.9-0.9c-1.7-1.2-0.5-4.3,1.5-5c2-0.7,4.2-0.1,6.4,0.1c2.1,0.2,4.7-0.3,5.5-2.3
		c0.7-1.7-0.4-3.7-1.9-4.9c-1.5-1.1-3.4-1.6-5.1-2.3c-9.6-4.2-13.2-18.2-6.6-26.4c2.7-3.4,7-5.7,11.3-5.6c4.4,0.2,8.7,3.1,9.8,7.3
		c0.8,3-1.6,7.2-4.4,6C166.3,511.2,165.7,509.1,164.1,508.4z"/>
	<path d="M207.6,502.4c1.8,1.3,1.2,4.2,0.5,6.3c-4.9,13.6-9.8,27.3-14.7,40.9c-0.4,1.2-0.9,2.5-2.1,3.2c-1.9,1.1-4.5-0.5-5.1-2.6
		s0-4.4,0.7-6.5c4-12.5,8.6-24.8,13.9-36.8C202,504,205.1,500.6,207.6,502.4z"/>
	<g>
		<path d="M225.4,513.1c0.1,1.9-0.7,3.9-2.1,5.2c-0.7,0.7-1.7,1.2-2.7,1.1c-0.6-0.1-1.2-0.5-1.6-0.9c-2.5-2.2-2.8-6.6-0.4-9
			c0.4-0.4,1-0.8,1.5-1c1.3-0.5,2.8,0,3.8,0.9C224.9,510.3,225.4,511.7,225.4,513.1z"/>
		<path d="M209.5,558c-0.5-0.8-0.9-1.7-0.6-2.5c0.5-1.6,2.7-1.7,4.3-1.3s3.4,1.3,4.8,0.5c1.3-0.7,1.7-2.2,2-3.6
			c1.7-7,3.2-14.4,1-21.2c-0.4-1.1-0.8-2.3-0.8-3.5c0-1.2,0.7-2.5,1.8-2.8c1.9-0.5,3.4,1.8,3.9,3.8c1.6,6.1,1.6,12.6,1.6,18.9
			c0,4.4-0.1,9.2-3,12.6c-1.9,2.2-4.8,3.5-7.8,3.3C213.9,562,211.1,560.4,209.5,558z"/>
		<path d="M308.5,523.4c0.2-1.8-2.3-2.8-4-2.2c-1.7,0.6-3.1,2-4.8,2.6c-1.5,0.5-2.3,2.4-2.1,4c0.2,1.6,1,3,1.9,4.4
			c0.2,2.1-3,3.3-4.7,2c-1.8-1.2-2.3-3.6-2.6-5.7c-0.3-2.1-0.4-4.4-1.8-6.1c-1.8,3.6-6.4,5.5-10.2,4.4c-1,1.6,0.3,3.9,2.1,4.5
			c1.8,0.6,3.8-0.2,5.3-1.4c1-0.8,2.6-0.1,3,1.1c0.4,1.2-0.1,2.5-0.9,3.4c-2.1,2.1-5.5,1.9-8.4,1.5c-4.2-0.5-8.8-1.2-11.5-4.4
			c-0.2,2-2.5,3-4.4,3.1c-2,0.1-4.1-0.2-5.8,0.7c-3.3,1.7-7-1.3-9.5-4c-2,1.5-4,3-6.3,3.8c-2.4,0.8-5.1,0.7-7.1-0.8
			c-6-4.6-6.4-13.8-4-20.9c1.3-3.7,3.3-7.3,6.7-9.1c4.6-2.4,10.8-0.6,13.8,3.6c3.1,4.2,3.1,10.2,0.8,14.8c-1.8,3.6,1.3,8.6,5.3,8.6
			c-0.3-3.2-0.5-6.4-0.8-9.6c-0.1-1.4,2.1-2,3.1-1s1.1,2.6,1,4s-0.2,3,0.7,4.1c0.8,1.1,3,1.3,3.4-0.1c0.9-2.8,1.3-5.7,1.3-8.6
			c0-1.8,2.8-2.1,3.9-0.8c1.1,1.3,1,3.3,1,5s0.4,3.8,2,4.6c0-3.8,0.2-8,2.4-11.1c2.2-3.1,7.3-4.5,10-1.7c0.6,0.6,1,1.3,1.7,1.7
			c0.7,0.4,1.9,0.1,2-0.7c0.2-1.6,2.5-1.4,3.9-0.6s3.3,1.7,4.2,0.4c1.7-2.2,5.7,0.5,8-1.1c1.6-1.1,3.8,0.3,4.5,2.1
			c0.7,1.8,0.4,3.7,0.6,5.6c0.1,1.9,1,4,2.8,4.6c2.7,0.8,4.9-2.3,5.3-5.1c0.4-2.8,0-5.8,1.6-8.1c0.2-0.3,0.4-0.5,0.8-0.7
			c1.6-0.8,2.8,1.7,2.9,3.5c0.2,3.5,0.3,7,0.5,10.6c0.1,2,2.8,2.7,4.9,2.5c2-0.2,4.7-0.2,5.5,1.7c-1.5,2.6-4.9,3.8-7.8,2.9
			c1.1,4.1,2.1,8.2,3.2,12.2c1.2,4.5-3.2,9.2-7.8,9c-4.6-0.2-8.5-4.3-9.1-8.9c-0.6-4.6,1.7-9.2,5.1-12.3c0.8-0.7,1.6-1.4,1.8-2.4
			s-0.8-2.2-1.7-1.8c-2.5,1.3-5.7,1.1-8.1-0.5S308.1,526.2,308.5,523.4 M246.6,527.9c0.2-0.5-0.1-1.1-0.5-1.5
			c-0.9-1-2.1-1.6-2.9-2.6c-0.8-1-1.2-2.7-0.2-3.5c1-0.9,2.6-0.3,3.6,0.5c1,0.8,1.9,1.9,3.2,2.2c0.9-2.5,1.9-5.1,1.8-7.7
			c-0.1-2.6-1.6-5.4-4.1-6.3c-3.2-1.1-6.5,1.3-8.4,4c-3,4.4-3.8,10.6-1,15.2c0.7,1.1,2.1,1.6,3.4,1.6c1.3,0,2.6-0.5,3.8-1
			C245.9,528.7,246.4,528.4,246.6,527.9 M325.3,552.4c0.4-0.1,0.8-0.4,0.7-0.8c-0.4-3.3-0.9-6.6-1.3-9.8c-0.1-0.8-0.5-1.9-1.3-1.9
			c-0.5,0-0.9,0.4-1.2,0.8c-1.8,2.4-2.3,5.6-1.4,8.4C321.5,551.1,323.4,553,325.3,552.4 M283,520.1c-0.6,0.2-1.1,0.5-1.5,0.9
			c-0.4,0.5-0.4,1.3,0.1,1.6c0.5,0.3,1,0.1,1.5-0.2c1-0.5,2.2-1.4,1.9-2.5c-0.6-0.4-1.4-0.4-2,0.1L283,520.1z"/>
	</g>
</g>
</svg>
